<svg xmlns="http://www.w3.org/2000/svg" xmlns:xlink="http://www.w3.org/1999/xlink" version="1.1" x="0px" y="0px" viewBox="0 0 100 125" enable-background="new 0 0 100 100" xml:space="preserve"><path fill="#000000" d="M72.223,27.72C69.491,17.016,69.264,0,69.264,0h-0.091H30.827h-0.091c0,0-0.228,17.016-2.957,27.72  c-2.615,10.251-5.724,18.94-5.729,28.644c-0.002,6.652,4.16,12.89,8.039,15.664c3.831,2.739,9.288,4.086,8.734,6.234  c-0.521,2.016-5.592,8.041-6.722,15.385c-0.199,1.293-0.071,3.558,2.309,4.647c3.494,1.603,9.405,1.699,15.044,1.706  c0.182,0,0.365,0,0.547,0c0.182,0,0.365,0,0.547,0c5.639-0.007,11.55-0.104,15.044-1.706c2.381-1.09,2.508-3.354,2.309-4.647  c-1.13-7.344-6.2-13.369-6.722-15.385c-0.555-2.148,4.903-3.495,8.734-6.234c3.878-2.774,8.04-9.012,8.038-15.664  C77.946,46.66,74.836,37.971,72.223,27.72z M66.688,67.516c-1.055,0.756-2.428,1.447-3.757,2.116  c-1.21,0.608-6.462,2.529-12.931,2.529c-6.56,0-11.72-1.921-12.931-2.529c-1.329-0.669-2.702-1.36-3.755-2.113  c-2.376-1.7-5.722-6.285-5.72-11.151c0.004-6.88,1.771-13.32,3.818-20.779c0.573-2.091,1.166-4.253,1.739-6.499  c1.894-7.426,2.647-17.429,2.943-23.545h27.812c0.296,6.117,1.05,16.12,2.944,23.545c0.573,2.248,1.167,4.414,1.741,6.507  c2.045,7.455,3.812,13.893,3.814,20.769C72.407,61.233,69.062,65.818,66.688,67.516z"/><text x="0" y="115" fill="#000000" font-size="5px" font-weight="bold" font-family="'Helvetica Neue', Helvetica, Arial-Unicode, Arial, Sans-serif">Created by Christopher T. Howlett</text><text x="0" y="120" fill="#000000" font-size="5px" font-weight="bold" font-family="'Helvetica Neue', Helvetica, Arial-Unicode, Arial, Sans-serif">from the Noun Project</text></svg>